<svg xmlns="http://www.w3.org/2000/svg" width="120" height="16.702"><path d="M26.694 16.683c-1.119-.115-2.306-.47-3.022-.901-.203-.122-.361-.126-.459-.01-.063.075-.067.099-.067.34v.26l-.294-.007-.294-.007-.006-2.525-.007-2.524h.57l.057.254c.29 1.308.51 1.979.848 2.588.415.748.854 1.21 1.583 1.667.697.436 1.308.603 1.938.527.465-.056.853-.192 1.15-.404.658-.47 1.123-1.306 1.306-2.348.116-.658.058-1.154-.208-1.799-.3-.725-.682-1.14-1.341-1.453a10.36 10.36 0 00-1.036-.415 78.732 78.732 0 01-2.14-.826c-.967-.401-1.587-.825-1.993-1.363-.334-.443-.463-.723-.6-1.307-.239-1.016-.232-1.892.023-2.78.088-.306.32-.892.486-1.222A4.34 4.34 0 0124.782.706 6.99 6.99 0 0125.864.21c.509-.17.753-.209 1.326-.21.785 0 .994.036 3.02.539l1.39.345v4.528h-.595l-.017-.306c-.07-1.255-.231-2.032-.576-2.763-.303-.644-.691-1.094-1.215-1.41-.565-.342-1.15-.477-1.903-.442-.771.036-1.24.228-1.67.685-.364.386-.602.869-.723 1.465-.034.17-.046.355-.046.736 0 .439.008.546.06.78.203.907.6 1.432 1.466 1.94.454.266.81.41 1.982.807.466.157.973.337 1.126.4.88.36 1.497.772 1.972 1.315.695.794 1.01 1.78.966 3.028-.031.865-.212 1.563-.623 2.396-.63 1.276-1.377 1.918-2.814 2.417-.504.176-.83.227-1.513.238-.309.005-.66-.001-.783-.014zm64.541 0c-1.091-.104-2.217-.435-2.992-.877-.245-.14-.394-.154-.495-.046-.057.06-.064.093-.072.34l-.01.272-.29-.007-.291-.007v-5.035l.278-.007c.248-.006.28-.002.292.039.007.025.061.258.119.516.324 1.456.643 2.223 1.244 2.988.496.632 1.484 1.28 2.202 1.444.415.094.885.076 1.33-.052.422-.122.702-.29 1.012-.608.422-.432.7-.963.881-1.683.213-.847.182-1.416-.115-2.14-.184-.448-.329-.676-.603-.952-.37-.372-.702-.552-1.671-.901a65.22 65.22 0 01-2.584-1.008c-.928-.417-1.524-.916-1.916-1.603-.225-.395-.354-.833-.442-1.495-.075-.57-.07-1.215.014-1.687.136-.769.529-1.745.93-2.31.224-.316.655-.746.973-.97a5.81 5.81 0 011.544-.74C90.993.028 91.201 0 91.73 0c.774 0 1 .04 3.007.54l1.39.345v4.528h-.595l-.018-.346c-.076-1.481-.333-2.442-.868-3.25-.17-.258-.5-.6-.737-.768a3.502 3.502 0 00-1.214-.517C92.48.485 91.632.484 91.377.53c-.27.049-.597.162-.773.267-.366.22-.748.675-.948 1.133-.43.981-.373 2.278.14 3.156.154.264.54.645.88.868.508.333.96.526 2.238.958.919.31 1.22.426 1.615.623 1.347.67 2.101 1.622 2.358 2.978.051.271.06.398.06.94 0 .71-.04 1.01-.21 1.571-.339 1.12-.911 2.043-1.62 2.614-.535.43-1.52.867-2.253.999-.317.057-1.25.084-1.629.047zm-31.417-.156c-2.679-.167-4.713-1.901-5.553-4.735-.202-.682-.323-1.332-.414-2.231-.05-.492-.041-1.996.015-2.518.168-1.578.488-2.678 1.106-3.797a6.23 6.23 0 011.767-1.973C57.794.534 59.054.182 60.471.228c.544.018.878.064 1.37.186 2.559.635 4.25 2.796 4.707 6.016.181 1.273.171 2.854-.025 4.096-.37 2.34-1.394 4.103-2.967 5.105-1.03.656-2.381.98-3.738.896zm.921-.498c.937-.247 1.692-1.231 2.18-2.842.58-1.917.736-5.219.37-7.844-.343-2.447-1.18-4.073-2.337-4.54-.795-.322-1.688-.065-2.312.665-.776.908-1.28 2.379-1.507 4.4-.082.733-.098 1.039-.112 2.148-.023 1.781.063 2.898.321 4.176.17.847.386 1.512.691 2.133.284.578.6 1.004.957 1.29.55.444 1.124.58 1.75.414zm-60.737.068v-.3h1.435V1.003L.726.996.015.99.007.696 0 .402H10.569v4.566h-.592l-.017-.34c-.097-1.92-.882-3.321-2.01-3.587-.13-.031-.464-.038-1.823-.038H4.463V7.89h.86c.769 0 .874-.005 1.017-.05.646-.201 1.051-.95 1.155-2.136l.032-.371h.589v5.74h-.593l-.018-.28c-.088-1.34-.56-2.152-1.32-2.275a11.26 11.26 0 00-.945-.028h-.777v7.306h1.592v.6H.002zm8.636 0v-.3l.788-.006.787-.007.297-1.005a17639.632 17639.632 0 002.134-7.24 14000.434 14000.434 0 002.05-6.96l.052-.177h1.237l.868 3.138a21075.87 21075.87 0 002.989 10.795l.4 1.449.683.007.683.007v.599h-5.74v-.6h1.363l-.015-.059-.634-2.361-.62-2.303h-3.763l-.067.228a3081.946 3081.946 0 01-1.311 4.436l-.019.059H12.265v.6H8.638v-.3zm7.123-5.66c0-.02-.159-.628-.353-1.35a41546.769 41546.769 0 00-1.03-3.832c-.118-.437-.222-.81-.231-.827-.01-.018-.18.522-.38 1.2a382854.038 382854.038 0 01-1.385 4.722l-.036.124h1.708c1.456 0 1.707-.006 1.707-.037zm17.352 5.66v-.3h1.33V1.055h-1.33v-.6h5.714v.6H37.47V8.1H41.671V1.055H40.34v-.6h5.715v.6h-1.331v14.742h1.331v.6H40.34v-.6h1.331V8.7h-4.2V15.797h1.356v.6h-5.714zm13.907 0v-.3l.79-.006.789-.007.006-7.365.007-7.365H47.02v-.6h5.949v.6h-1.331v14.743h1.331v.6H47.02zm29.495.163c-.266-.53-7.073-13.8-7.111-13.862-.047-.076-.048.099-.049 6.647v6.726h1.174v.6l-1.494-.007-1.493-.007-.008-.293-.007-.294h1.124V1.08H67.398v-.6h4.062l2.981 5.83c1.64 3.206 2.998 5.85 3.017 5.877.031.04.037-.786.037-5.568l.001-5.616-.607-.007-.606-.007-.007-.294-.008-.293h3.002v.6h-1.069v15.394h-1.617zm3.694-.163v-.3H81.566V1.002H80.21v-.6h5.715v.6h-1.331v14.795h1.331v.6h-5.715zm19.674 0v-.3h1.565V.999l-.737.01-.737.01-.216.082c-.68.26-1.199.894-1.519 1.855-.169.506-.246.96-.302 1.787l-.016.23-.291-.008-.291-.007-.007-1.976c-.005-1.288-.016-1.977-.033-1.977-.016 0-.026-.118-.026-.3v-.3H108.624l-.007 2.277-.007 2.276-.29.007-.29.007-.019-.32c-.061-1.077-.31-1.975-.727-2.624-.241-.374-.65-.74-.996-.891-.261-.115-.405-.132-1.116-.132h-.672v14.794h1.566v.6h-6.184zm7.123 0v-.3h1.584l.146-.49c.2-.67.902-3.048 2.55-8.63a13691.163 13691.163 0 011.744-5.91l.095-.326.618-.007.617-.007.04.138.382 1.364.743 2.661a31699.012 31699.012 0 013.01 10.763l.124.43.67.008.671.007v.599h-5.74v-.6h1.352l-.022-.085a1083.079 1083.079 0 00-.77-2.864l-.295-1.095-.179-.666H110.573l-.071.248-.534 1.813c-.726 2.458-.77 2.608-.77 2.63 0 .01.323.019.718.019h.717v.6h-3.627zm7.175-5.64c0-.01-.053-.219-.119-.464l-1.422-5.292a5.84 5.84 0 01-.076-.298c0-.088-.037.034-1.422 4.766l-.368 1.26c-.013.042.08.045 1.697.045.94 0 1.71-.008 1.71-.018z"/></svg>