<?xml version="1.0" encoding="UTF-8" standalone="no"?>
<svg
   xmlns:dc="http://purl.org/dc/elements/1.1/"
   xmlns:cc="http://creativecommons.org/ns#"
   xmlns:rdf="http://www.w3.org/1999/02/22-rdf-syntax-ns#"
   xmlns:svg="http://www.w3.org/2000/svg"
   xmlns="http://www.w3.org/2000/svg"
   xmlns:sodipodi="http://sodipodi.sourceforge.net/DTD/sodipodi-0.dtd"
   xmlns:inkscape="http://www.inkscape.org/namespaces/inkscape"
   width="32.994999"
   height="32.994999"
   version="1.1"
   id="svg4530"
   sodipodi:docname="favicon.svg"
   inkscape:version="0.92.4 (5da689c313, 2019-01-14)">
  <metadata
     id="metadata4536">
    <rdf:RDF>
      <cc:Work
         rdf:about="">
        <dc:format>image/svg+xml</dc:format>
        <dc:type
           rdf:resource="http://purl.org/dc/dcmitype/StillImage" />
        <dc:title></dc:title>
      </cc:Work>
    </rdf:RDF>
  </metadata>
  <defs
     id="defs4534" />
  <sodipodi:namedview
     pagecolor="#ffffff"
     bordercolor="#666666"
     borderopacity="1"
     objecttolerance="10"
     gridtolerance="10"
     guidetolerance="10"
     inkscape:pageopacity="0"
     inkscape:pageshadow="2"
     inkscape:window-width="1811"
     inkscape:window-height="1051"
     id="namedview4532"
     showgrid="false"
     inkscape:zoom="4.8666667"
     inkscape:cx="4.5318605"
     inkscape:cy="41.376895"
     inkscape:window-x="100"
     inkscape:window-y="-9"
     inkscape:window-maximized="1"
     inkscape:current-layer="svg4530"
     fit-margin-top="0"
     fit-margin-left="0"
     fit-margin-right="0"
     fit-margin-bottom="0" />
  <g
     id="g4585"
     transform="matrix(1.5715452,0,0,1.5715452,24.660623,37.230322)">
    <circle
       r="10.49763"
       cy="-13.192635"
       cx="-5.1943288"
       id="path4577"
       style="opacity:1;fill:#ffffff;fill-opacity:1;stroke:none;stroke-width:2.48399997;stroke-linecap:square;stroke-linejoin:miter;stroke-miterlimit:4;stroke-dasharray:none;stroke-dashoffset:0;stroke-opacity:1;paint-order:normal" />
    <path
       inkscape:connector-curvature="0"
       id="path4556"
       d="M -10.476829,-5.4946349 V -5.794635 h 1.4350001 v -14.794 l -0.711,-0.007 -0.7110001,-0.006 -0.008,-0.294 -0.007,-0.294 H 0.09017115 v 4.566 h -0.592 l -0.017,-0.34 c -0.097,-1.92 -0.88199995,-3.321 -2.00999955,-3.587 -0.13,-0.031 -0.464,-0.038 -1.823,-0.038 h -1.6640003 v 6.887 h 0.86 c 0.7690003,0 0.8740003,-0.005 1.0170003,-0.05 0.646,-0.201 1.051,-0.95 1.155,-2.136 l 0.032,-0.371 h 0.589 v 5.74 h -0.593 l -0.018,-0.28 c -0.088,-1.34 -0.56,-2.152 -1.32,-2.275 a 11.26,11.26 0 0 0 -0.9450003,-0.028 h -0.777 v 7.306 h 1.5920003 v 0.6000001 h -6.0530006 z" />
  </g>
</svg>
